PathFileType	4	(X/Y/Z)	C:\MyCloud\GitHub\OpenSimScripting\Matlab\Data\Gait2354_Simbody\Hip_Kinetic_SLOW_Crop_Marker.trc	
DataRate	CameraRate	NumFrames	NumMarkers	Units	OrigDataRate	OrigDataStartFrame	OrigNumFrames
100	100	4	34	mm	100	2666	1050
Frame#	Time	Torso2			Torso3			Torso4			Hip1			Hip2			LThigh1			LThigh2			LThigh3			LThigh4			RThigh1			RThigh2			RThigh3			RThigh4			RTibia1			RTibia2			RTibia3			RTibia4			LTibia1			LTibia2			LTibia3			LTibia4			LFoot1			LFoot2			LFoot3			LFoot4			RFoot1			RFoot2			RFoot3			RFoot4			C7			Torso5			C_31			C_32			C_33			
		X1	Y1	Z1	X2	Y2	Z2	X3	Y3	Z3	X4	Y4	Z4	X5	Y5	Z5	X6	Y6	Z6	X7	Y7	Z7	X8	Y8	Z8	X9	Y9	Z9	X10	Y10	Z10	X11	Y11	Z11	X12	Y12	Z12	X13	Y13	Z13	X14	Y14	Z14	X15	Y15	Z15	X16	Y16	Z16	X17	Y17	Z17	X18	Y18	Z18	X19	Y19	Z19	X20	Y20	Z20	X21	Y21	Z21	X22	Y22	Z22	X23	Y23	Z23	X24	Y24	Z24	X25	Y25	Z25	X26	Y26	Z26	X27	Y27	Z27	X28	Y28	Z28	X29	Y29	Z29	X30	Y30	Z30	X31	Y31	Z31	X32	Y32	Z32	X33	Y33	Z33	X34	Y34	Z34	

2666	6.57000	476.83795	-293.73138	-1255.11389	467.69351	-298.26016	-1186.46899	480.40704	-445.36307	-1308.24695	274.67578	-451.15060	-843.02686	244.66846	-141.55125	-866.68024	142.39590	-505.65518	-790.36249	126.37109	-534.79388	-405.47903	137.95438	-391.73157	-394.36243	237.38814	-483.38141	-662.37622	154.60403	-115.59954	-784.97418	126.06646	-95.12907	-403.55939	117.93053	-235.65436	-382.16702	207.73503	-141.47783	-493.32419	90.88469	-80.38491	-350.10236	40.55746	-92.30564	59.01723	85.48695	-178.95406	44.89840	151.68216	-114.91375	-314.99228	89.36207	-544.47986	-365.16922	30.09803	-547.94806	47.78459	78.29734	-464.96936	37.94027	144.35860	-517.23260	-317.84839	5.86282	-486.77875	25.05128	95.22746	-585.90466	156.25818	192.91862	-536.14545	186.74846	151.45369	-483.78564	164.06691	10.48018	-151.97302	27.17583	113.95403	-51.58535	143.57246	192.88969	-95.20898	186.80061	153.03772	-149.34575	173.76938	0.00000	0.00000	0.00000	464.83240	-157.42099	-1321.64087	0.00000	0.00000	0.00000	0.00000	0.00000	0.00000	0.00000	0.00000	0.00000	
2667	6.58000	476.70718	-293.69986	-1255.33716	467.84698	-298.14960	-1186.57800	480.38605	-445.18954	-1308.55603	274.72693	-450.94174	-842.95770	244.62463	-141.63719	-866.65863	142.56032	-505.54727	-790.30176	126.41805	-534.85498	-405.49829	137.97969	-391.78448	-394.36987	237.47603	-483.35324	-662.35822	154.59221	-115.67989	-784.97339	126.18517	-95.13985	-403.63879	118.04417	-235.46455	-382.06711	207.81105	-141.44864	-493.31454	90.91498	-80.38651	-350.09384	40.50565	-92.30393	58.98755	85.61142	-178.93578	44.84229	151.72247	-114.89029	-315.03473	89.36346	-544.43146	-365.18259	30.00723	-547.96063	47.78573	78.41758	-464.95178	37.94592	144.39101	-517.26202	-317.86218	5.83635	-486.78159	25.05829	95.27353	-585.93579	156.26775	192.94344	-536.17108	186.73871	151.46078	-483.77487	164.04640	10.50539	-151.88776	27.18497	113.95227	-51.48475	143.51877	192.93196	-95.04085	186.74908	153.13858	-149.27478	173.73717	0.00000	0.00000	0.00000	464.67276	-157.42798	-1321.87744	0.00000	0.00000	0.00000	0.00000	0.00000	0.00000	0.00000	0.00000	0.00000	
2668	6.59000	476.57770	-293.64166	-1255.59326	467.74014	-298.12115	-1186.85205	480.22021	-445.10440	-1308.76831	274.69644	-450.99774	-843.05774	244.61366	-141.62779	-866.70007	142.44630	-505.63406	-790.38263	126.33565	-534.72998	-405.50064	137.99844	-391.81168	-394.36932	237.45686	-483.36746	-662.44934	154.53085	-115.69494	-784.99384	126.11303	-95.07168	-403.60931	118.03902	-235.49419	-382.13336	207.76881	-141.45163	-493.39825	90.89486	-80.36230	-350.14966	40.50119	-92.29024	58.93660	85.82065	-179.04877	44.71617	151.71527	-114.86826	-315.07971	89.32476	-544.45184	-365.16281	30.07004	-547.97809	47.75724	78.38364	-464.97620	37.91751	144.42290	-517.25946	-317.90897	5.80769	-486.78491	24.98917	95.31078	-585.94934	156.20090	192.95982	-536.18512	186.71011	151.46095	-483.79645	164.02342	10.58802	-152.11638	27.04405	113.97115	-51.28966	143.46404	192.91216	-94.91641	186.64186	153.22466	-149.21242	173.61150	0.00000	0.00000	0.00000	464.26004	-157.41794	-1322.06458	0.00000	0.00000	0.00000	0.00000	0.00000	0.00000	0.00000	0.00000	0.00000	
2669	6.60000	476.41833	-293.52887	-1255.85767	467.99750	-297.91089	-1187.14917	480.00696	-445.03195	-1309.02063	274.68811	-451.03818	-843.06482	244.57109	-141.54784	-866.70947	142.38557	-505.66718	-790.42975	126.31472	-534.82111	-405.55176	137.96837	-391.78940	-394.40411	237.47542	-483.38266	-662.49170	154.53101	-115.62837	-785.03461	126.04775	-95.07114	-403.72183	117.95885	-235.57445	-382.25812	207.64948	-141.39246	-493.49179	90.78694	-80.29229	-350.21310	40.48552	-92.20251	58.86867	85.62258	-178.88618	44.82327	151.62985	-114.78870	-315.10168	89.28520	-544.34479	-365.18002	29.34370	-548.39276	47.77958	78.30706	-465.00208	37.87639	144.34476	-517.27216	-317.93344	5.82362	-486.79602	24.97662	95.21154	-585.88239	156.20282	192.91212	-536.21265	186.67175	151.45532	-483.81570	164.00116	10.54993	-152.11063	27.00083	113.89254	-51.20325	143.39053	192.81418	-94.73220	186.57556	153.10504	-149.03122	173.61674	392.55380	-316.45776	-1422.58960	464.06213	-157.28427	-1322.34021	0.00000	0.00000	0.00000	0.00000	0.00000	0.00000	0.00000	0.00000	0.00000	
